# xmcd
#
# Track frame offsets:
#	150
#	22450
#	36690
#	72205
#	94137
#	108441
#	127125
#	143540
#	165660
#	179712
#	206859
#	223870
#	242297
#	262073
#	282193
#	297275
#	322730
#	335292
#
# Disc length: 4769 seconds
#
# Revision: 1
# Processed by: cddbd v1.5.2PL0 Copyright (c) Steve Scherf et al.
# Submitted via: audiograbber 1.80
#
DISCID=24129f12
DTITLE=Whiskey, Bikers and Blues - Vol.4
DYEAR=1900
DGENRE=
TTITLE0=MICHAEL KATON - Where The Wild Ones Go
TTITLE1=UNDERSDOGS - Florida Bound
TTITLE2=RED HOT BLUES - One Bottle
TTITLE3=OMAR and THE HOWLERS - Low DownDirty Blues
TTITLE4=GROUNDHOGS - SmokeStack Lightnin'
TTITLE5=JOHN HAMMOND - Big Black Mariah
TTITLE6=BOBBIE MANRIQUES - Family Traditions
TTITLE7=MASON CASEY - Digital Phone Blues
TTITLE8=GEORGE THOROGOOD - Night Time
TTITLE9=KEVIN THORPE - Blues In Bottle
TTITLE10=SY KLOPPS - My Name Is Sy Klopps
TTITLE11=SMOKEHOUSE - Son Of King
TTITLE12=JOHN MAYALL - World War Blues
TTITLE13=FATT CAT FREDDIE - Outta Nowhere
TTITLE14=REVEREND RUSTY - Born For The Blues
TTITLE15=WALTER TROUT - Message Oil The Doorway
TTITLE16=LYNYRD SKYNYRD - Pison Whiskey
TTITLE17=THE DUSTERS - Hellbound Train
EXTD=
EXTT0=
EXTT1=
EXTT2=
EXTT3=
EXTT4=
EXTT5=
EXTT6=
EXTT7=
EXTT8=
EXTT9=
EXTT10=
EXTT11=
EXTT12=
EXTT13=
EXTT14=
EXTT15=
EXTT16=
EXTT17=
PLAYORDER=
